<svg xmlns="http://www.w3.org/2000/svg" viewBox="0 0 284.471 109.88">
  <defs>
    <style>
      .cls-1 {
        fill: #fff;
      }

      .cls-2 {
        fill: #fbba00;
      }
    </style>
  </defs>
  <g id="Group_203" data-name="Group 203" transform="translate(-0.029 0.004)">
    <g id="Group_39" data-name="Group 39">
      <path id="Path_4" data-name="Path 4" class="cls-1" d="M114.3,90.7H100.7V55.5h9.5a48.555,48.555,0,0,1,5.6.3,11.553,11.553,0,0,1,4.2,1.3,7,7,0,0,1,2.7,2.7,10.253,10.253,0,0,1,1,4.7c0,3.2-1,5.7-3,7.3a9.678,9.678,0,0,1,4.6,3.2,8.551,8.551,0,0,1,1.5,5.3,10.433,10.433,0,0,1-1.1,4.9,9.676,9.676,0,0,1-2.8,3.2,11.009,11.009,0,0,1-4,1.7A17.59,17.59,0,0,1,114.3,90.7ZM112.8,61h-5.7v8.6h6.3a5.291,5.291,0,0,0,3-.9,3.577,3.577,0,0,0,1.3-3.2c0-1.7-.4-2.9-1.2-3.5A5.815,5.815,0,0,0,112.8,61Zm1,13.7h-6.7V85.2h6.3a8.578,8.578,0,0,0,5-1.2,4.6,4.6,0,0,0,1.7-4C120.2,76.5,118.1,74.7,113.8,74.7Z"/>
      <path id="Path_5" data-name="Path 5" class="cls-1" d="M154.8,90.7h-6.7l-7.3-13.1h-6.5V90.7h-6.4V55.5h12.9c8.1,0,12.1,3.4,12.1,10.2a10.243,10.243,0,0,1-1.6,6.1,13.445,13.445,0,0,1-4.4,4.1ZM139.3,60.9h-5V71.6H139c2.7,0,4.6-.5,5.6-1.4a5.289,5.289,0,0,0,1.5-4.1,4.7,4.7,0,0,0-1.5-3.9C143.7,61.3,141.9,60.9,139.3,60.9Z"/>
      <path id="Path_6" data-name="Path 6" class="cls-1" d="M183.8,90.7h-6.7l-3-8.5H162.4l-3,8.5h-6.7l12.5-35.2h6.1ZM171.8,76l-3.7-10.3L164.5,76Z"/>
      <path id="Path_7" data-name="Path 7" class="cls-1" d="M220.5,90.7h-6.7l-3-23.6-9,16.2-9-16.1-3,23.5h-6.7L188,55.5h5.3l8.6,16,8.5-16h5.3Z"/>
      <path id="Path_8" data-name="Path 8" class="cls-1" d="M249.6,86.4c-3.2,3.4-7.4,5-12.5,5a18.155,18.155,0,0,1-7-1.3,16.164,16.164,0,0,1-5.5-3.7,17.822,17.822,0,0,1-3.6-5.8,19.673,19.673,0,0,1-1.3-7.5,20.389,20.389,0,0,1,1.3-7.5,18.947,18.947,0,0,1,3.6-5.8,16.164,16.164,0,0,1,5.5-3.7,17.472,17.472,0,0,1,7-1.3,17.809,17.809,0,0,1,7,1.3,16.164,16.164,0,0,1,5.5,3.7,17.822,17.822,0,0,1,3.6,5.8,19.5,19.5,0,0,1,1.3,7.4C254.5,78.6,252.9,83,249.6,86.4Zm-4.8-22.1a9.224,9.224,0,0,0-7.6-3.3,9.865,9.865,0,0,0-4.4.9,8.7,8.7,0,0,0-3.2,2.5,11.469,11.469,0,0,0-2,3.8,18.207,18.207,0,0,0,0,10,10.564,10.564,0,0,0,2,3.8,8.7,8.7,0,0,0,3.2,2.5,11.206,11.206,0,0,0,8.8,0,8.7,8.7,0,0,0,3.2-2.5,11.469,11.469,0,0,0,2-3.8,15.912,15.912,0,0,0,.7-5C247.4,69.5,246.6,66.5,244.8,64.3Z"/>
      <path id="Path_9" data-name="Path 9" class="cls-1" d="M283.9,90.7h-5.3L262.5,66.6V90.7h-6.4V55.5h6.3l15,22.7V55.5h6.4V90.7Z"/>
    </g>
    <g id="Group_41" data-name="Group 41">
      <path id="Path_10" data-name="Path 10" class="cls-2" d="M4.3,16.6a4.6,4.6,0,0,1-.8-6.5A4.529,4.529,0,0,1,10,9.3c2.1,1.6,40.6,36.9,40.6,36.9S6.3,18.1,4.3,16.6Z"/>
      <g id="Group_40" data-name="Group 40">
        <path id="Path_11" data-name="Path 11" class="cls-2" d="M4.5,43.4A6.737,6.737,0,1,1,9,30.7c3.5,1.2,44.2,22.9,44.2,22.9S7.9,44.7,4.5,43.4Z"/>
        <path id="Path_12" data-name="Path 12" class="cls-2" d="M90.7,61.2a2.886,2.886,0,1,1-1.4,5.6C87.8,66.4,69.6,59,69.6,59S89.2,60.8,90.7,61.2Z"/>
        <path id="Path_13" data-name="Path 13" class="cls-2" d="M85,76.4a3.335,3.335,0,1,1-5.1,4.3c-1.2-1.4-13.3-20.9-13.3-20.9S83.8,75,85,76.4Z"/>
        <path id="Path_14" data-name="Path 14" class="cls-2" d="M71.3,84.1a2.433,2.433,0,0,1-4.8.8c-.2-1.3-.5-18.1-.5-18.1S71.1,82.8,71.3,84.1Z"/>
        <path id="Path_15" data-name="Path 15" class="cls-2" d="M95,46a2.693,2.693,0,1,1,1.4,5.2c-1.3.4-19.7,2.8-19.7,2.8S93.6,46.4,95,46Z"/>
        <path id="Path_16" data-name="Path 16" class="cls-2" d="M38.3,64.2a3.269,3.269,0,1,1-.7-6.5c1.8-.2,23.9.6,23.9.6S40,64.1,38.3,64.2Z"/>
        <path id="Path_17" data-name="Path 17" class="cls-2" d="M69.9,16a5.045,5.045,0,1,1,9.8,2.4C79.1,21.1,66,53,66,53S69.2,18.7,69.9,16Z"/>
        <path id="Path_18" data-name="Path 18" class="cls-2" d="M59.7,105.1a6.282,6.282,0,1,1-12.2-3c.8-3.4,17-43.1,17-43.1S60.6,101.8,59.7,105.1Z"/>
        <path id="Path_19" data-name="Path 19" class="cls-2" d="M96.3,26.4a4.982,4.982,0,1,1,6.2,7.8c-2.2,1.7-31.9,19-31.9,19S94.1,28.1,96.3,26.4Z"/>
        <path id="Path_20" data-name="Path 20" class="cls-2" d="M44.6,81.3a3.536,3.536,0,0,1-4.9-5.1C41.2,74.9,61,60.9,61,60.9S46.1,80,44.6,81.3Z"/>
        <path id="Path_21" data-name="Path 21" class="cls-2" d="M43.4,12.7a5.787,5.787,0,0,1,11-3.6c1,3.1,8,42.3,8,42.3S44.5,15.8,43.4,12.7Z"/>
      </g>
      <path id="Path_22" data-name="Path 22" class="cls-2" d="M21.9,5.6A3.6,3.6,0,0,1,22.6.7a3.516,3.516,0,0,1,4.9.7c1.2,1.6,34,52.1,34,52.1S23.1,7.1,21.9,5.6Z"/>
    </g>
    <g id="Group_42" data-name="Group 42">
      <path id="Path_23" data-name="Path 23" class="cls-1" d="M102.6,102.8h-2.1V96.7h1.4a3.083,3.083,0,0,1,1,.1,1.445,1.445,0,0,1,.7.2,1,1,0,0,1,.4.5,1.719,1.719,0,0,1,.1.8v.4a.367.367,0,0,1-.1.3c0,.1-.1.2-.2.3l-.3.3a1.242,1.242,0,0,1,.8.6c.2.2.2.5.2.9a2,2,0,0,1-.2.9,2.651,2.651,0,0,1-.5.6,4.876,4.876,0,0,1-.7.3C103.1,102.8,102.8,102.8,102.6,102.8Zm-.5-5.4h-.8v1.8h1.4c.1,0,.2-.1.3-.1.1-.1.2-.2.2-.3a4.331,4.331,0,0,0,.1-.5.9.9,0,0,0-.1-.5l-.3-.3c-.1-.1-.2-.1-.4-.1Zm.5,2.6h-1.3v2.1h1.6a4.331,4.331,0,0,0,.5-.1c.1-.1.3-.2.3-.3a1.3,1.3,0,0,0,0-1c-.1-.1-.1-.2-.2-.3s-.2-.1-.4-.2A.551.551,0,0,0,102.6,100Z"/>
      <path id="Path_24" data-name="Path 24" class="cls-1" d="M110.3,102.8h-.9l-1.4-2.4h-1.3v2.4h-.9V96.7h2a2.769,2.769,0,0,1,.9.1,4.874,4.874,0,0,1,.7.3.918.918,0,0,1,.4.6,1.949,1.949,0,0,1,.1.8,1.689,1.689,0,0,1-.3,1,2.7,2.7,0,0,1-.8.7Zm-2.5-5.5h-1.1v2.3H108a.6.6,0,0,0,.4-.1c.1,0,.2-.1.3-.2a.52.52,0,0,0,.2-.4.749.749,0,0,0,.1-.5.984.984,0,0,0-.3-.8Q108.55,97.3,107.8,97.3Z"/>
      <path id="Path_25" data-name="Path 25" class="cls-1" d="M116,102.8h-.9l-.6-1.7h-2.3l-.6,1.7h-.9l2.2-6.1h.9Zm-1.8-2.4-.9-2.6-.9,2.6Z"/>
      <path id="Path_26" data-name="Path 26" class="cls-1" d="M120.9,96.7l-3.3,5.4h2.9v.8h-4.3l3.3-5.4h-2.9v-.8Z"/>
      <path id="Path_27" data-name="Path 27" class="cls-1" d="M122.7,102.8h-.8V96.7h.8Z"/>
      <path id="Path_28" data-name="Path 28" class="cls-1" d="M127.9,102.8h-3.6V96.7h.8v5.4h2.8v.7Z"/>
      <path id="Path_29" data-name="Path 29" class="cls-1" d="M129.7,102.8h-.8V96.7h.8Z"/>
      <path id="Path_30" data-name="Path 30" class="cls-1" d="M135.9,102.8H135l-.6-1.7h-2.3l-.6,1.7h-.9l2.2-6.1h.9Zm-1.7-2.4-.9-2.6-.9,2.6Z"/>
      <path id="Path_31" data-name="Path 31" class="cls-1" d="M141.6,102.8h-.7L137.7,98v4.8h-.8V96.7h.9l3,4.6V96.7h.8Z"/>
      <path id="Path_32" data-name="Path 32" class="cls-1" d="M151.3,102.8h-.9l-.6-4.6-1.7,3.2-1.7-3.2-.6,4.6H145l.8-6.1h.7l1.6,3,1.6-3h.7Z"/>
      <path id="Path_33" data-name="Path 33" class="cls-1" d="M156.4,102.8h-3.8V96.7h3.7v.8h-2.9v1.8h2.3v.8h-2.3v2.1h3Z"/>
      <path id="Path_34" data-name="Path 34" class="cls-1" d="M161.4,97.4h-1.8v5.4h-.8V97.4H157v-.8h4.4Z"/>
      <path id="Path_35" data-name="Path 35" class="cls-1" d="M166.3,102.8h-3.8V96.7h3.7v.8h-2.9v1.8h2.3v.8h-2.3v2.1h3Z"/>
      <path id="Path_36" data-name="Path 36" class="cls-1" d="M172.2,102a2.94,2.94,0,0,1-2.2.9,4.3,4.3,0,0,1-1.2-.2,8.8,8.8,0,0,1-1-.6,2.075,2.075,0,0,1-.6-1,4.325,4.325,0,0,1,0-2.6,8.792,8.792,0,0,1,.6-1,2.075,2.075,0,0,1,1-.6,2.537,2.537,0,0,1,1.2-.2,5.019,5.019,0,0,1,1.2.2,8.8,8.8,0,0,1,1,.6,1.7,1.7,0,0,1,.6,1,5.066,5.066,0,0,1,.2,1.3A2.444,2.444,0,0,1,172.2,102Zm-.6-4a1.865,1.865,0,0,0-1.6-.7,2.92,2.92,0,0,0-.9.2,1.794,1.794,0,0,0-.7.5,2.01,2.01,0,0,0-.4.8,5.05,5.05,0,0,0,0,2,2.01,2.01,0,0,0,.4.8,1.794,1.794,0,0,0,.7.5,2.125,2.125,0,0,0,1.8,0,1.794,1.794,0,0,0,.7-.5,2.01,2.01,0,0,0,.4-.8,3.083,3.083,0,0,0,.1-1A2.427,2.427,0,0,0,171.6,98Z"/>
      <path id="Path_37" data-name="Path 37" class="cls-1" d="M178.7,102.8h-.9l-1.4-2.4h-1.3v2.4h-.9V96.7h2a2.769,2.769,0,0,1,.9.1,4.874,4.874,0,0,1,.7.3.918.918,0,0,1,.4.6,1.949,1.949,0,0,1,.1.8,1.689,1.689,0,0,1-.3,1,2.7,2.7,0,0,1-.8.7Zm-2.4-5.5h-1.1v2.3h1.3a.6.6,0,0,0,.4-.1c.1,0,.2-.1.3-.2a.52.52,0,0,0,.2-.4.749.749,0,0,0,.1-.5.984.984,0,0,0-.3-.8A1.222,1.222,0,0,0,176.3,97.3Z"/>
      <path id="Path_38" data-name="Path 38" class="cls-1" d="M186.7,102a2.94,2.94,0,0,1-2.2.9,4.3,4.3,0,0,1-1.2-.2,8.8,8.8,0,0,1-1-.6,1.7,1.7,0,0,1-.6-1,4.325,4.325,0,0,1,0-2.6,8.792,8.792,0,0,1,.6-1,2.075,2.075,0,0,1,1-.6,2.537,2.537,0,0,1,1.2-.2,5.019,5.019,0,0,1,1.2.2,8.8,8.8,0,0,1,1,.6,2.075,2.075,0,0,1,.6,1,5.066,5.066,0,0,1,.2,1.3A2.444,2.444,0,0,1,186.7,102Zm-.6-4a1.865,1.865,0,0,0-1.6-.7,2.92,2.92,0,0,0-.9.2,1.794,1.794,0,0,0-.7.5,2.01,2.01,0,0,0-.4.8,5.05,5.05,0,0,0,0,2,2.01,2.01,0,0,0,.4.8,1.794,1.794,0,0,0,.7.5,2.125,2.125,0,0,0,1.8,0,1.794,1.794,0,0,0,.7-.5,2.01,2.01,0,0,0,.4-.8,3.083,3.083,0,0,0,.1-1A2.427,2.427,0,0,0,186.1,98Z"/>
      <path id="Path_39" data-name="Path 39" class="cls-1" d="M190.9,102.8h-2.1V96.7h1.4a3.083,3.083,0,0,1,1,.1,1.445,1.445,0,0,1,.7.2,1,1,0,0,1,.4.5,1.719,1.719,0,0,1,.1.8v.4a.367.367,0,0,1-.1.3c0,.1-.1.2-.2.3l-.3.3a1.242,1.242,0,0,1,.8.6c.2.2.2.5.2.9a2,2,0,0,1-.2.9,2.652,2.652,0,0,1-.5.6,4.876,4.876,0,0,1-.7.3C191.4,102.8,191.1,102.8,190.9,102.8Zm-.5-5.4h-.8v1.8H191c.1,0,.2-.1.3-.1.1-.1.2-.2.2-.3a4.331,4.331,0,0,0,.1-.5.9.9,0,0,0-.1-.5l-.3-.3c-.1-.1-.2-.1-.4-.1Zm.5,2.6h-1.3v2.1h1.6a4.332,4.332,0,0,0,.5-.1c.1-.1.3-.2.3-.3a1.3,1.3,0,0,0,0-1c-.1-.1-.1-.2-.2-.3s-.2-.1-.4-.2C191.3,100,191.1,100,190.9,100Z"/>
      <path id="Path_40" data-name="Path 40" class="cls-1" d="M195.9,102.9a3.966,3.966,0,0,1-2-.4l.1-1a3.077,3.077,0,0,0,1.9.6,1.268,1.268,0,0,0,.6-.1c.2,0,.3-.1.5-.2l.3-.3a.6.6,0,0,0,.1-.4c0-.2,0-.3-.1-.4l-.3-.3a2.186,2.186,0,0,0-.5-.3,1.445,1.445,0,0,0-.7-.2l-.6-.2a3.581,3.581,0,0,1-1.1-.6,1.222,1.222,0,0,1-.3-.9,1.268,1.268,0,0,1,.1-.6,2.092,2.092,0,0,1,.4-.6,1.612,1.612,0,0,1,.7-.4,3.087,3.087,0,0,1,1.1-.2h.5a4.332,4.332,0,0,1,.5.1,4.332,4.332,0,0,0,.5.1c.1.1.3.1.4.2l-.1.9a3.8,3.8,0,0,0-1.8-.6.9.9,0,0,0-.5.1.52.52,0,0,0-.4.2l-.3.3c-.1.1-.1.2-.1.4a.6.6,0,0,0,.3.6,5.133,5.133,0,0,0,1,.4c.1,0,.2.1.3.1h.2c.1,0,.1,0,.2.1.1,0,.2.1.4.2l.3.2c.1,0,.1.1.2.1l.1.1.2.2a2.186,2.186,0,0,1,.3.5c0,.2.1.4.1.6a1.268,1.268,0,0,1-.1.6,2.186,2.186,0,0,1-.3.5,1.612,1.612,0,0,1-.7.4A6.751,6.751,0,0,1,195.9,102.9Z"/>
      <path id="Path_41" data-name="Path 41" class="cls-1" d="M203.2,102.8h-3.8V96.7h3.7v.8h-2.9v1.8h2.3v.8h-2.3v2.1h3Z"/>
      <path id="Path_42" data-name="Path 42" class="cls-1" d="M208.9,102.8H208l-1.4-2.4h-1.3v2.4h-.9V96.7h2a2.769,2.769,0,0,1,.9.1,4.874,4.874,0,0,1,.7.3.918.918,0,0,1,.4.6,1.949,1.949,0,0,1,.1.8,1.689,1.689,0,0,1-.3,1,2.7,2.7,0,0,1-.8.7Zm-2.5-5.5h-1.1v2.3h1.3a.6.6,0,0,0,.4-.1c.1,0,.2-.1.3-.2a.52.52,0,0,0,.2-.4.749.749,0,0,0,.1-.5.984.984,0,0,0-.3-.8Q207.15,97.3,206.4,97.3Z"/>
      <path id="Path_43" data-name="Path 43" class="cls-1" d="M214.8,96.7l-2.3,6.1h-.9l-2.3-6.1h.9l1.9,5.2,1.9-5.2Z"/>
      <path id="Path_44" data-name="Path 44" class="cls-1" d="M219.9,102.8H219l-.6-1.7h-2.3l-.6,1.7h-.9l2.2-6.1h.9Zm-1.7-2.4-.9-2.6-.9,2.6Z"/>
      <path id="Path_45" data-name="Path 45" class="cls-1" d="M224.2,97.4h-1.8v5.4h-.8V97.4h-1.8v-.8h4.4v.8Z"/>
      <path id="Path_46" data-name="Path 46" class="cls-1" d="M226,102.8h-.8V96.7h.8Z"/>
      <path id="Path_47" data-name="Path 47" class="cls-1" d="M232.4,102a2.94,2.94,0,0,1-2.2.9,4.3,4.3,0,0,1-1.2-.2,8.8,8.8,0,0,1-1-.6,2.075,2.075,0,0,1-.6-1,4.325,4.325,0,0,1,0-2.6,8.792,8.792,0,0,1,.6-1,2.075,2.075,0,0,1,1-.6,2.537,2.537,0,0,1,1.2-.2,5.019,5.019,0,0,1,1.2.2,8.8,8.8,0,0,1,1,.6,2.075,2.075,0,0,1,.6,1,5.066,5.066,0,0,1,.2,1.3A2.444,2.444,0,0,1,232.4,102Zm-.6-4a1.865,1.865,0,0,0-1.6-.7,2.92,2.92,0,0,0-.9.2,1.794,1.794,0,0,0-.7.5,2.01,2.01,0,0,0-.4.8,5.05,5.05,0,0,0,0,2,2.01,2.01,0,0,0,.4.8,1.794,1.794,0,0,0,.7.5,2.125,2.125,0,0,0,1.8,0,1.794,1.794,0,0,0,.7-.5,2.01,2.01,0,0,0,.4-.8,3.083,3.083,0,0,0,.1-1A2.068,2.068,0,0,0,231.8,98Z"/>
      <path id="Path_48" data-name="Path 48" class="cls-1" d="M239.3,102.8h-.7L235.4,98v4.8h-.8V96.7h.9l3,4.6V96.7h.8Z"/>
      <path id="Path_49" data-name="Path 49" class="cls-1" d="M247.8,102.8h-.7L243.9,98v4.8H243V96.7h.9l3,4.6V96.7h.8v6.1Z"/>
      <path id="Path_50" data-name="Path 50" class="cls-1" d="M253.2,102.8h-3.8V96.7h3.7v.8h-2.9v1.8h2.3v.8h-2.3v2.1h3Z"/>
      <path id="Path_51" data-name="Path 51" class="cls-1" d="M258.2,97.4h-1.8v5.4h-.8V97.4h-1.8v-.8h4.4Z"/>
      <path id="Path_52" data-name="Path 52" class="cls-1" d="M266.9,96.7l-1.8,6.1h-.9l-1.4-5-1.5,5h-.9l-1.7-6.1h.9l1.4,5.2,1.5-5.1h.8l1.6,5.1,1.3-5.2Z"/>
      <path id="Path_53" data-name="Path 53" class="cls-1" d="M272.7,102a2.94,2.94,0,0,1-2.2.9,4.3,4.3,0,0,1-1.2-.2,8.794,8.794,0,0,1-1-.6,2.075,2.075,0,0,1-.6-1,4.325,4.325,0,0,1,0-2.6,8.794,8.794,0,0,1,.6-1,2.075,2.075,0,0,1,1-.6,2.537,2.537,0,0,1,1.2-.2,5.02,5.02,0,0,1,1.2.2,8.794,8.794,0,0,1,1,.6,2.075,2.075,0,0,1,.6,1,5.066,5.066,0,0,1,.2,1.3A3.113,3.113,0,0,1,272.7,102Zm-.6-4a1.865,1.865,0,0,0-1.6-.7,2.92,2.92,0,0,0-.9.2,1.794,1.794,0,0,0-.7.5,2.01,2.01,0,0,0-.4.8,5.05,5.05,0,0,0,0,2,2.01,2.01,0,0,0,.4.8,1.794,1.794,0,0,0,.7.5,2.125,2.125,0,0,0,1.8,0,1.794,1.794,0,0,0,.7-.5,2.01,2.01,0,0,0,.4-.8,3.083,3.083,0,0,0,.1-1A2.969,2.969,0,0,0,272.1,98Z"/>
      <path id="Path_54" data-name="Path 54" class="cls-1" d="M279.2,102.8h-.9l-1.4-2.4h-1.3v2.4h-.9V96.7h2a2.769,2.769,0,0,1,.9.1,4.876,4.876,0,0,1,.7.3.918.918,0,0,1,.4.6,1.949,1.949,0,0,1,.1.8,1.69,1.69,0,0,1-.3,1,2.7,2.7,0,0,1-.8.7Zm-2.5-5.5h-1.1v2.3h1.3a.6.6,0,0,0,.4-.1c.1,0,.2-.1.3-.2a.52.52,0,0,0,.2-.4.749.749,0,0,0,.1-.5.984.984,0,0,0-.3-.8C277.5,97.4,277.1,97.3,276.7,97.3Z"/>
      <path id="Path_55" data-name="Path 55" class="cls-1" d="M281,102.8h-.8V96.7h.8Zm3.5,0h-.9l-2.3-3.3,2.3-2.9h.9l-2.3,2.9Z"/>
    </g>
  </g>
</svg>
